<svg width="32" height="32" viewBox="0 0 32 32" fill="none" xmlns="http://www.w3.org/2000/svg"><g id="FIGMA VERSION">
<g id="UI CONTENTS">
<g id="Frame 30">
<g id="Frame 29">
<g id="Frame 27">
<g id="DUAL LEVEL">
<g id="Frame 18">
<path id="Vector" opacity="0.35" d="M15.84 31.43C24.4501 31.43 31.43 24.4501 31.43 15.84C31.43 7.22988 24.4501 0.25 15.84 0.25C7.22991 0.25 0.25 7.22988 0.25 15.84C0.25 24.4501 7.22991 31.43 15.84 31.43Z" fill="url(#paint0_linear_0_1)" stroke="#9E9D9E" stroke-width="0.5" stroke-miterlimit="10"/>
<g id="Group">
<path id="Vector_2" d="M21.31 22.59H10.37C8.66 22.59 7.27002 21.2 7.27002 19.49V12.2C7.27002 10.49 8.66 9.10004 10.37 9.10004H21.31C23.02 9.10004 24.41 10.49 24.41 12.2V19.49C24.41 21.2 23.02 22.59 21.31 22.59ZM10.37 10.1C9.21 10.1 8.27002 11.04 8.27002 12.2V19.49C8.27002 20.65 9.21 21.59 10.37 21.59H21.31C22.47 21.59 23.41 20.65 23.41 19.49V12.2C23.41 11.04 22.47 10.1 21.31 10.1H10.37Z" fill="#231F20"/>
<path id="Vector_3" d="M21.13 20.1401H10.55C10.03 20.1401 9.60004 19.71 9.60004 19.19C9.60004 18.67 10.03 18.2401 10.55 18.2401H21.13C21.65 18.2401 22.08 18.67 22.08 19.19C22.08 19.71 21.65 20.1401 21.13 20.1401Z" fill="#231F20"/>
<path id="Vector_4" d="M21.13 16.25H10.55C10.03 16.25 9.60004 15.83 9.60004 15.3C9.60004 14.77 10.03 14.35 10.55 14.35H21.13C21.65 14.35 22.08 14.78 22.08 15.3C22.08 15.82 21.65 16.25 21.13 16.25Z" fill="#231F20"/>
</g>
</g>
</g>
</g>
</g>
</g>
</g>
</g>
<defs>
<linearGradient id="paint0_linear_0_1" x1="26.861" y1="26.871" x2="4.81338" y2="4.82339" gradientUnits="userSpaceOnUse">
<stop stop-color="white"/>
<stop offset="0.18" stop-color="#DCDBDB"/>
<stop offset="0.58" stop-color="#838182"/>
<stop offset="1" stop-color="#231F20"/>
</linearGradient>
</defs>
</svg>
