<svg preserveAspectRatio="none" width="100%" height="100%" overflow="visible" style="display: block;" viewBox="0 0 33.89 14.06" fill="none" xmlns="http://www.w3.org/2000/svg">
<g id="FUNCTION BUTTON">
<path id="Indicator" d="M22.16 11.32H11.58C10.8234 11.32 10.21 11.9334 10.21 12.69C10.21 13.4466 10.8234 14.06 11.58 14.06H22.16C22.9166 14.06 23.53 13.4466 23.53 12.69C23.53 11.9334 22.9166 11.32 22.16 11.32Z" fill="var(--indicator-fill, #9E9D9E)"/>
<g id="Group">
<path id="Vector_2" d="M0 0.0100021H4.61V0.760002H0.860001V2.88H3.99001V3.6H0.860001V6.8H0V0V0.0100021Z" fill="var(--fill-0, black)"/>
<path id="Vector_3" d="M8.17 6.8V6.13H8.15001C7.80001 6.61 7.38 6.92 6.67 6.92C5.66 6.92 5.02 6.31 5.02 5.29V1.89H5.79001V5.27C5.79001 5.91 6.2 6.28 6.89 6.28C7.67 6.28 8.17 5.69 8.17 4.91V1.89H8.94V6.8H8.17Z" fill="var(--fill-0, black)"/>
<path id="Vector_4" d="M10.75 2.54H10.77C11.12 2.07 11.62 1.78 12.33 1.78C13.36 1.78 13.98 2.34 13.98 3.36V6.81H13.21V3.43C13.21 2.79 12.79 2.43 12.1 2.43C11.32 2.43 10.75 2.98 10.75 3.79V6.81H9.98001V1.9H10.75V2.55V2.54Z" fill="var(--fill-0, black)"/>
<path id="Vector_5" d="M14.72 4.35C14.72 2.92 15.63 1.76 17.1 1.76C18.26 1.76 19.03 2.43 19.2 3.47H18.42C18.31 2.8 17.84 2.4 17.1 2.4C16.05 2.4 15.51 3.27 15.51 4.35C15.51 5.43 16.05 6.29 17.1 6.29C17.9 6.29 18.37 5.83 18.44 5.07H19.2C19.1 6.25 18.33 6.93 17.1 6.93C15.64 6.93 14.72 5.77 14.72 4.34V4.35Z" fill="var(--fill-0, black)"/>
<path id="Vector_6" d="M19.61 1.89H20.32V0.339996H21.09V1.89H22.04V2.52H21.09V5.71C21.09 6.05 21.27 6.17 21.58 6.17C21.73 6.17 21.9 6.13 21.99 6.1H22.02V6.77C21.84 6.81 21.63 6.84 21.4 6.84C20.77 6.84 20.32 6.58 20.32 5.89V2.52H19.61V1.89Z" fill="var(--fill-0, black)"/>
<path id="Vector_7" d="M22.84 0.0100021H23.61V0.959999H22.84V0.0100021ZM22.84 1.89H23.61V6.8H22.84V1.89Z" fill="var(--fill-0, black)"/>
<path id="Vector_8" d="M24.38 4.35C24.38 2.92 25.29 1.76 26.76 1.76C28.23 1.76 29.13 2.92 29.13 4.35C29.13 5.78 28.24 6.94 26.76 6.94C25.28 6.94 24.38 5.78 24.38 4.35ZM28.34 4.35C28.34 3.27 27.81 2.4 26.76 2.4C25.71 2.4 25.17 3.27 25.17 4.35C25.17 5.43 25.71 6.29 26.76 6.29C27.81 6.29 28.34 5.43 28.34 4.35Z" fill="var(--fill-0, black)"/>
<path id="Vector_9" d="M30.66 2.54H30.68C31.03 2.07 31.53 1.78 32.24 1.78C33.27 1.78 33.89 2.34 33.89 3.36V6.81H33.12V3.43C33.12 2.79 32.7 2.43 32.01 2.43C31.23 2.43 30.66 2.98 30.66 3.79V6.81H29.89V1.9H30.66V2.55V2.54Z" fill="var(--fill-0, black)"/>
</g>
</g>
</svg>
