<svg width="33" height="33" viewBox="0 0 33 33" fill="none" xmlns="http://www.w3.org/2000/svg"><g id="FIGMA VERSION">
<g id="UI CONTENTS">
<g id="Frame 26">
<g id="Frame 24">
<g id="LIGHT">
<g id="Frame 20">
<g id="Group">
<path id="Vector" opacity="0.35" d="M16.15 32.0501C24.9313 32.0501 32.05 24.9314 32.05 16.15C32.05 7.36869 24.9313 0.25 16.15 0.25C7.36865 0.25 0.25 7.36869 0.25 16.15C0.25 24.9314 7.36865 32.0501 16.15 32.0501Z" fill="url(#paint0_linear_0_1)" stroke="#9E9D9E" stroke-width="0.5" stroke-miterlimit="10"/>
<g id="Group_2">
<path id="Vector_2" d="M17.5166 23.1567V23.4116C17.5166 23.891 17.1189 24.2887 16.6395 24.2887H15.6503C15.1709 24.2887 14.7732 23.891 14.7732 23.4116V23.1567H17.5166ZM18.5365 22.1368H13.7533V23.4116C13.7533 24.4621 14.5998 25.3086 15.6503 25.3086H16.6395C17.69 25.3086 18.5365 24.4621 18.5365 23.4116V22.1368Z" fill="#231F20"/>
<path id="Vector_3" d="M16.201 8.01135C19.0465 8.03174 21.3514 10.3469 21.3514 13.1924C21.3514 14.4774 20.8721 15.7217 19.9746 16.7008C19.3728 17.3943 18.1184 18.9853 17.69 20.5662H14.6406C14.2122 18.9955 12.9476 17.3943 12.3356 16.6804C11.4585 15.7217 10.9792 14.4774 10.9792 13.1924C10.9792 10.3469 13.2841 8.03174 16.1296 8.01135H16.1704H16.2113M16.1602 6.99146C16.1602 6.99146 16.1602 6.99146 16.15 6.99146C12.7232 6.99146 9.94913 9.76555 9.94913 13.1924C9.94913 14.8038 10.5712 16.2622 11.5809 17.3739C12.0909 17.9654 13.7737 20.0256 13.7737 21.586H18.5671C18.5671 20.0256 20.25 17.9552 20.7599 17.3739C21.7696 16.2724 22.3917 14.8038 22.3917 13.1924C22.3917 9.76555 19.6177 6.99146 16.1908 6.99146H16.1602Z" fill="#231F20"/>
</g>
</g>
</g>
</g>
</g>
</g>
</g>
</g>
<defs>
<linearGradient id="paint0_linear_0_1" x1="27.3967" y1="27.389" x2="4.91069" y2="4.903" gradientUnits="userSpaceOnUse">
<stop stop-color="white"/>
<stop offset="0.18" stop-color="#DCDBDB"/>
<stop offset="0.58" stop-color="#838182"/>
<stop offset="1" stop-color="#231F20"/>
</linearGradient>
</defs>
</svg>
