<svg preserveAspectRatio="none" width="100%" height="100%" overflow="visible" style="display: block;" viewBox="0 0 43.02 43.02" fill="none" xmlns="http://www.w3.org/2000/svg">
<g id="Power Button">
<path id="Vector" opacity="0.35" d="M21.51 42.77C33.2516 42.77 42.77 33.2516 42.77 21.51C42.77 9.76842 33.2516 0.25 21.51 0.25C9.76843 0.25 0.25 9.76842 0.25 21.51C0.25 33.2516 9.76843 42.77 21.51 42.77Z" fill="url(#paint0_linear_0_4)" stroke="var(--stroke-0, #9E9D9E)" stroke-width="0.5" stroke-miterlimit="10"/>
<g id="Group">
<path id="Vector_2" d="M19.56 12.73C15.82 13.61 13.03 16.97 13.03 20.98C13.03 25.67 16.83 29.47 21.52 29.47C26.21 29.47 30.01 25.67 30.01 20.98C30.01 16.97 27.22 13.61 23.48 12.73" stroke="var(--stroke-0, #231F20)" stroke-miterlimit="10" stroke-linecap="round"/>
<path id="Vector_3" d="M21.51 20.22V10.61" stroke="var(--stroke-0, #231F20)" stroke-miterlimit="10" stroke-linecap="round"/>
</g>
</g>
<defs>
<linearGradient id="paint0_linear_0_4" x1="36.5455" y1="36.5391" x2="6.47927" y2="6.47292" gradientUnits="userSpaceOnUse">
<stop stop-color="white"/>
<stop offset="0.18" stop-color="#DCDBDB"/>
<stop offset="0.58" stop-color="#838182"/>
<stop offset="1" stop-color="#231F20"/>
</linearGradient>
</defs>
</svg>
