<svg preserveAspectRatio="none" width="100%" height="100%" overflow="visible" style="display: block;" viewBox="0 0 30.08 14.05" fill="none" xmlns="http://www.w3.org/2000/svg">
<g id="PRESET BUTTON">
<g id="Group">
<path id="Vector" d="M0 0H2.83002C3.54002 0 4.09001 0.239996 4.45001 0.659996C4.74001 0.989996 4.91 1.44 4.91 1.95C4.91 3.2 4.19999 3.95 2.70999 3.95H0.860016V6.8H0V0ZM0.860016 3.25H2.64999C3.60999 3.25 4.07001 2.77 4.07001 1.99C4.07001 1.17 3.57001 0.739998 2.70001 0.739998H0.869995V3.25H0.860016Z" fill="var(--fill-0, black)"/>
<path id="Vector_2" d="M6.38 2.7H6.39999C6.68999 2.22 7.21002 1.82999 7.86002 1.82999C8.00002 1.82999 8.08001 1.85 8.17001 1.89V2.63H8.14001C8.03001 2.59 7.95002 2.57999 7.80002 2.57999C7.04002 2.57999 6.37 3.15 6.37 4.07V6.8H5.60001V1.89H6.37V2.71L6.38 2.7Z" fill="var(--fill-0, black)"/>
<path id="Vector_3" d="M8.41 4.34C8.41 2.91 9.33999 1.75 10.74 1.75C12.21 1.75 13 2.89 13 4.52H9.20001C9.26001 5.52 9.80001 6.28 10.79 6.28C11.5 6.28 11.98 5.94 12.15 5.27H12.9C12.67 6.32 11.9 6.92 10.79 6.92C9.29001 6.92 8.41 5.75999 8.41 4.32999V4.34ZM9.20999 3.93999H12.17C12.12 2.95999 11.62 2.36 10.73 2.36C9.84001 2.36 9.31999 3.03999 9.20999 3.93999Z" fill="var(--fill-0, black)"/>
<path id="Vector_4" d="M13.43 5.2H14.22C14.32 6.06 14.9 6.29 15.63 6.29C16.44 6.29 16.77 5.94 16.77 5.48C16.77 4.93 16.39 4.79 15.49 4.6C14.52 4.4 13.66 4.2 13.66 3.13C13.66 2.31 14.29 1.78 15.43 1.78C16.65 1.78 17.25 2.36 17.36 3.32H16.57C16.49 2.67 16.14 2.39 15.41 2.39C14.68 2.39 14.42 2.7 14.42 3.09C14.42 3.62 14.9 3.73 15.74 3.9C16.73 4.1 17.56 4.32 17.56 5.45C17.56 6.44 16.75 6.93999 15.62 6.93999C14.27 6.93999 13.52 6.3 13.44 5.2H13.43Z" fill="var(--fill-0, black)"/>
<path id="Vector_5" d="M18.11 4.34C18.11 2.91 19.04 1.75 20.44 1.75C21.91 1.75 22.7 2.89 22.7 4.52H18.9C18.96 5.52 19.5 6.28 20.49 6.28C21.2 6.28 21.68 5.94 21.85 5.27H22.6C22.37 6.32 21.6 6.92 20.49 6.92C18.99 6.92 18.11 5.75999 18.11 4.32999V4.34ZM18.91 3.93999H21.87C21.82 2.95999 21.32 2.36 20.43 2.36C19.54 2.36 19.02 3.03999 18.91 3.93999Z" fill="var(--fill-0, black)"/>
<path id="Vector_6" d="M23.04 1.88H23.75V0.329994H24.52V1.88H25.47V2.50999H24.52V5.7C24.52 6.04 24.7 6.16 25.01 6.16C25.16 6.16 25.33 6.12 25.42 6.09H25.45V6.75999C25.27 6.79999 25.06 6.82999 24.83 6.82999C24.2 6.82999 23.75 6.57 23.75 5.88V2.50999H23.04V1.88Z" fill="var(--fill-0, black)"/>
<path id="Vector_7" d="M25.95 5.2H26.74C26.84 6.06 27.41 6.29 28.15 6.29C28.96 6.29 29.29 5.94 29.29 5.48C29.29 4.93 28.91 4.79 28.01 4.6C27.04 4.4 26.18 4.2 26.18 3.13C26.18 2.31 26.81 1.78 27.95 1.78C29.17 1.78 29.77 2.36 29.88 3.32H29.09C29.01 2.67 28.66 2.39 27.93 2.39C27.2 2.39 26.94 2.7 26.94 3.09C26.94 3.62 27.42 3.73 28.26 3.9C29.25 4.1 30.08 4.32 30.08 5.45C30.08 6.44 29.27 6.93999 28.14 6.93999C26.79 6.93999 26.04 6.3 25.96 5.2H25.95Z" fill="var(--fill-0, black)"/>
</g>
<path id="Indicator" d="M20.11 11.31H9.53003C8.7734 11.31 8.16003 11.9234 8.16003 12.68C8.16003 13.4366 8.7734 14.05 9.53003 14.05H20.11C20.8667 14.05 21.48 13.4366 21.48 12.68C21.48 11.9234 20.8667 11.31 20.11 11.31Z" fill="var(--indicator-fill, #9E9D9E)"/>
</g>
</svg>
