<svg preserveAspectRatio="none" width="100%" height="100%" overflow="visible" style="display: block;" viewBox="0 0 78.91 34.52" fill="none" xmlns="http://www.w3.org/2000/svg">
<g id="PROBE BUTTON">
<path id="Vector" opacity="0.35" d="M61.65 0.25H17.26C7.86563 0.25 0.25 7.86563 0.25 17.26C0.25 26.6544 7.86563 34.27 17.26 34.27H61.65C71.0444 34.27 78.66 26.6544 78.66 17.26C78.66 7.86563 71.0444 0.25 61.65 0.25Z" fill="url(#paint0_linear_0_4)" stroke="var(--stroke-0, #9E9D9E)" stroke-width="0.5" stroke-miterlimit="10"/>
<path id="Indicator" d="M44.75 23.44H34.17C33.4134 23.44 32.8 24.0534 32.8 24.81C32.8 25.5666 33.4134 26.18 34.17 26.18H44.75C45.5067 26.18 46.12 25.5666 46.12 24.81C46.12 24.0534 45.5067 23.44 44.75 23.44Z" fill="var(--indicator-fill, #9E9D9E)"/>
<g id="Group">
<path id="Vector_3" d="M27.94 12.13H30.77C31.48 12.13 32.03 12.37 32.39 12.79C32.68 13.12 32.85 13.57 32.85 14.08C32.85 15.33 32.14 16.08 30.65 16.08H28.8V18.93H27.94V12.13ZM28.79 15.38H30.58C31.54 15.38 32 14.9 32 14.12C32 13.3 31.5 12.87 30.63 12.87H28.8V15.38H28.79Z" fill="var(--fill-0, black)"/>
<path id="Vector_4" d="M34.32 14.83H34.34C34.63 14.35 35.15 13.96 35.8 13.96C35.94 13.96 36.02 13.98 36.11 14.02V14.76H36.08C35.97 14.72 35.89 14.71 35.74 14.71C34.98 14.71 34.31 15.28 34.31 16.2V18.93H33.54V14.02H34.31V14.84L34.32 14.83Z" fill="var(--fill-0, black)"/>
<path id="Vector_5" d="M36.35 16.47C36.35 15.04 37.26 13.88 38.73 13.88C40.2 13.88 41.1 15.04 41.1 16.47C41.1 17.9 40.21 19.06 38.73 19.06C37.25 19.06 36.35 17.9 36.35 16.47ZM40.3 16.47C40.3 15.39 39.77 14.52 38.72 14.52C37.67 14.52 37.13 15.39 37.13 16.47C37.13 17.55 37.67 18.41 38.72 18.41C39.77 18.41 40.3 17.55 40.3 16.47Z" fill="var(--fill-0, black)"/>
<path id="Vector_6" d="M42.64 18.28H42.62V18.93H41.85V12.13H42.62V14.72H42.64C43.01 14.22 43.5 13.9 44.22 13.9C45.47 13.9 46.31 14.85 46.31 16.49C46.31 18.13 45.52 19.07 44.19 19.07C43.52 19.07 43.04 18.83 42.64 18.28ZM45.52 16.49C45.52 15.39 45.07 14.55 44.14 14.55C43.07 14.55 42.57 15.42 42.57 16.49C42.57 17.56 43.08 18.42 44.13 18.42C45.07 18.42 45.52 17.6 45.52 16.49Z" fill="var(--fill-0, black)"/>
<path id="Vector_7" d="M46.8 16.47C46.8 15.04 47.73 13.88 49.13 13.88C50.6 13.88 51.39 15.02 51.39 16.65H47.59C47.65 17.65 48.19 18.41 49.18 18.41C49.89 18.41 50.37 18.07 50.54 17.4H51.29C51.06 18.45 50.29 19.05 49.18 19.05C47.68 19.05 46.8 17.89 46.8 16.46V16.47ZM47.61 16.07H50.57C50.52 15.09 50.02 14.49 49.13 14.49C48.24 14.49 47.72 15.17 47.61 16.07Z" fill="var(--fill-0, black)"/>
</g>
</g>
<defs>
<linearGradient id="paint0_linear_0_4" x1="39.46" y1="34.26" x2="39.46" y2="0.25" gradientUnits="userSpaceOnUse">
<stop stop-color="white"/>
<stop offset="0.18" stop-color="#DCDBDB"/>
<stop offset="0.58" stop-color="#838182"/>
<stop offset="1" stop-color="#231F20"/>
</linearGradient>
</defs>
</svg>
