<svg width="33" height="52" viewBox="0 0 33 52" fill="none" xmlns="http://www.w3.org/2000/svg"><g id="FIGMA VERSION">
<g id="UI CONTENTS">
<g id="Frame 30">
<g id="Frame 29">
<g id="Frame 27">
<g id="RACK LEVEL">
<g id="Frame 16">
<g id="Group">
<path id="Vector" d="M22.3564 6.53998H11.3631C9.98395 6.53998 8.86462 5.41998 8.86462 4.03998C8.86462 2.65998 9.98395 1.53998 11.3631 1.53998H22.3564C23.7356 1.53998 24.8549 2.65998 24.8549 4.03998C24.8549 5.41998 23.7356 6.53998 22.3564 6.53998Z" fill="#F26522"/>
<path id="Vector_2" d="M22.3564 21H11.3631C9.98395 21 8.86462 19.88 8.86462 18.5C8.86462 17.12 9.98395 16 11.3631 16H22.3564C23.7356 16 24.8549 17.12 24.8549 18.5C24.8549 19.88 23.7356 21 22.3564 21Z" fill="#F26522"/>
<path id="Vector_3" d="M22.3564 35.46H11.3631C9.98395 35.46 8.86462 34.34 8.86462 32.96C8.86462 31.58 9.98395 30.46 11.3631 30.46H22.3564C23.7356 30.46 24.8549 31.58 24.8549 32.96C24.8549 34.34 23.7356 35.46 22.3564 35.46Z" fill="#F26522"/>
<path id="Vector_4" d="M22.3564 49.93H11.3631C9.98395 49.93 8.86462 48.81 8.86462 47.43C8.86462 46.05 9.98395 44.93 11.3631 44.93H22.3564C23.7356 44.93 24.8549 46.05 24.8549 47.43C24.8549 48.81 23.7356 49.93 22.3564 49.93Z" fill="#F26522"/>
<path id="Vector_5" d="M3.6178 0V7.81H2.14872V1.73L1.19928 2.09V0.530003L2.36855 0H3.6278H3.6178Z" fill="#F26522"/>
<path id="Vector_6" d="M0.559687 22.29V20.96L3.23805 17.44C3.35798 17.28 3.45795 17.12 3.51791 16.95C3.58787 16.78 3.61783 16.63 3.61783 16.49C3.61783 16.27 3.54791 16.11 3.408 15.99C3.27807 15.88 3.07818 15.82 2.82833 15.82C2.57848 15.82 2.38857 15.9 2.23866 16.06C2.08875 16.22 1.99884 16.45 1.95886 16.74H0.449768C0.499738 15.99 0.739614 15.42 1.15936 15.01C1.5791 14.6 2.12873 14.4 2.80832 14.4C3.53788 14.4 4.10756 14.58 4.51731 14.93C4.92706 15.28 5.11692 15.79 5.11692 16.43C5.11692 16.79 5.05695 17.14 4.92703 17.49C4.80711 17.84 4.63725 18.16 4.40739 18.44L2.48851 20.87H5.15693V22.29H0.53974H0.559687Z" fill="#F26522"/>
<path id="Vector_7" d="M2.71851 36.86C2.24879 36.86 1.82904 36.77 1.45926 36.6C1.08949 36.43 0.799659 36.18 0.579793 35.85C0.359926 35.52 0.240004 35.13 0.210022 34.67H1.72906C1.76903 34.91 1.84901 35.1 1.99891 35.23C2.13883 35.36 2.3287 35.43 2.54857 35.43C2.8284 35.43 3.0383 35.35 3.1982 35.2C3.34811 35.04 3.42804 34.82 3.42804 34.54V34.36C3.42804 34.06 3.36807 33.83 3.23815 33.67C3.10823 33.51 2.93837 33.43 2.70851 33.43H2.04887V32.01H2.70851C2.89839 32.01 3.0383 31.94 3.13824 31.8C3.23818 31.66 3.28817 31.46 3.28817 31.21V31.08C3.28817 30.84 3.22816 30.65 3.11823 30.52C3.0083 30.39 2.84842 30.32 2.64855 30.32C2.44867 30.32 2.27876 30.4 2.13884 30.55C1.99893 30.7 1.89901 30.91 1.84904 31.19H0.339948C0.399912 30.46 0.659764 29.9 1.0995 29.5C1.53923 29.1 2.07889 28.9 2.70851 28.9C3.39809 28.9 3.93774 29.08 4.30751 29.43C4.68728 29.78 4.87717 30.28 4.87717 30.93V31.17C4.87717 31.53 4.78721 31.85 4.60732 32.12C4.42743 32.39 4.16762 32.59 3.82782 32.72C4.20759 32.81 4.49741 33 4.69729 33.31C4.90716 33.62 5.0071 34.01 5.0071 34.49V34.73C5.0071 35.41 4.80725 35.94 4.40749 36.32C4.00773 36.7 3.44807 36.88 2.71851 36.88V36.86Z" fill="#F26522"/>
<path id="Vector_8" d="M0 50.06V48.71L2.40857 43.46H4.06754L1.72893 48.65H5.23681V50.07H0V50.06ZM3.14811 51.26V46.66H4.61719V51.26H3.14811Z" fill="#F26522"/>
<path id="Vector_9" d="M27.4633 47.93C27.1835 47.93 26.9636 47.71 26.9636 47.43C26.9636 47.15 27.1835 46.93 27.4633 46.93C29.9618 46.93 32.0006 44.38 32.0006 41.25V10.22C32.0006 7.08998 29.9618 4.53998 27.4633 4.53998C27.1835 4.53998 26.9636 4.31998 26.9636 4.03998C26.9636 3.75998 27.1835 3.53998 27.4633 3.53998C30.5115 3.53998 33 6.52998 33 10.22V41.25C33 44.93 30.5215 47.93 27.4633 47.93Z" fill="#231F20"/>
<path id="Vector_10" d="M32.2804 19H27.7231C27.4433 19 27.2234 18.78 27.2234 18.5C27.2234 18.22 27.4433 18 27.7231 18H32.2804C32.5602 18 32.7801 18.22 32.7801 18.5C32.7801 18.78 32.5602 19 32.2804 19Z" fill="#231F20"/>
<path id="Vector_11" d="M32.2804 34.03H27.7231C27.4433 34.03 27.2234 33.81 27.2234 33.53C27.2234 33.25 27.4433 33.03 27.7231 33.03H32.2804C32.5602 33.03 32.7801 33.25 32.7801 33.53C32.7801 33.81 32.5602 34.03 32.2804 34.03Z" fill="#231F20"/>
</g>
</g>
</g>
</g>
</g>
</g>
</g>
</g>
</svg>
