<svg width="125" height="19" viewBox="0 0 125 19" fill="none" xmlns="http://www.w3.org/2000/svg"><g id="FIGMA VERSION">
<g id="SMART PROBE">
<g id="Group">
<path id="Vector" d="M67.34 4.42H68.58C68.67 5.17 69.1 5.47 69.99 5.47C70.64 5.47 71.2 5.24 71.2 4.67C71.2 4.06 70.61 3.94 69.65 3.72C68.53 3.47 67.51 3.17 67.51 1.87C67.51 0.639999 68.52 0 69.91 0C71.3 0 72.23 0.690001 72.32 1.95H71.11C71.04 1.32 70.55 1.01 69.9 1.01C69.22 1.01 68.77 1.3 68.77 1.74C68.77 2.25 69.21 2.4 70.13 2.6C71.42 2.88 72.46 3.19 72.46 4.53C72.46 5.8 71.44 6.51 70.03 6.51C68.33 6.51 67.37 5.76 67.33 4.44L67.34 4.42Z" fill="#231F20"/>
<path id="Vector_2" d="M73.14 1.86999H74.29V2.46999H74.32C74.56 2.05999 75 1.73999 75.62 1.73999C76.19 1.73999 76.64 2.04999 76.86 2.52999H76.88C77.19 2.03999 77.66 1.73999 78.23 1.73999C79.17 1.73999 79.71 2.34999 79.71 3.32999V6.34999H78.52V3.52999C78.52 3.01999 78.27 2.75999 77.83 2.75999C77.33 2.75999 77.03 3.13999 77.03 3.73999V6.34999H75.84V3.52999C75.84 3.01999 75.59 2.75999 75.15 2.75999C74.67 2.75999 74.35 3.13999 74.35 3.73999V6.34999H73.16V1.85999L73.14 1.86999Z" fill="#231F20"/>
<path id="Vector_3" d="M83.13 5.85H83.11C82.88 6.19 82.56 6.45 81.79 6.45C80.87 6.45 80.22 5.97 80.22 5.08C80.22 4.09 81.02 3.78 82.02 3.64C82.76 3.53 83.1 3.47 83.1 3.13C83.1 2.81 82.85 2.6 82.35 2.6C81.79 2.6 81.52 2.8 81.48 3.23H80.42C80.46 2.44 81.04 1.75 82.35 1.75C83.66 1.75 84.24 2.35 84.24 3.4V5.68C84.24 6.02 84.29 6.22 84.4 6.3V6.34H83.25C83.18 6.25 83.14 6.04 83.11 5.84L83.13 5.85ZM83.13 4.77V4.1C82.92 4.22 82.6 4.29 82.3 4.36C81.68 4.5 81.37 4.64 81.37 5.06C81.37 5.48 81.65 5.63 82.07 5.63C82.75 5.63 83.13 5.21 83.13 4.77Z" fill="#231F20"/>
<path id="Vector_4" d="M86.15 2.58H86.18C86.45 2.07 86.76 1.81 87.28 1.81C87.41 1.81 87.49 1.81 87.56 1.85V2.89H87.53C86.75 2.81 86.19 3.22 86.19 4.17V6.36H85V1.87H86.15V2.59V2.58Z" fill="#231F20"/>
<path id="Vector_5" d="M87.86 1.86997H88.48V0.469971H89.64V1.86997H90.41V2.65997H89.64V5.03997C89.64 5.36997 89.82 5.48997 90.09 5.48997C90.24 5.48997 90.44 5.48997 90.44 5.48997V6.35997C90.44 6.35997 90.17 6.37997 89.7 6.37997C89.12 6.37997 88.48 6.14997 88.48 5.29997V2.66997H87.86V1.87997V1.86997Z" fill="#231F20"/>
<path id="Vector_6" d="M92.59 0.0999756H95.34C96.07 0.0999756 96.61 0.309976 96.97 0.679976C97.32 1.03998 97.53 1.52998 97.53 2.10998C97.53 3.28998 96.75 4.08998 95.44 4.08998H93.9V6.34998H92.59V0.0999756ZM93.91 3.04997H95.22C95.89 3.04997 96.23 2.67998 96.23 2.10998C96.23 1.53998 95.86 1.18998 95.23 1.18998H93.9V3.03997L93.91 3.04997Z" fill="#231F20"/>
<path id="Vector_7" d="M99.22 2.58H99.25C99.52 2.07 99.83 1.81 100.35 1.81C100.48 1.81 100.56 1.81 100.63 1.85V2.89H100.6C99.82 2.81 99.26 3.22 99.26 4.17V6.36H98.07V1.87H99.22V2.59V2.58Z" fill="#231F20"/>
<path id="Vector_8" d="M100.79 4.10999C100.79 2.76999 101.74 1.73999 103.13 1.73999C104.52 1.73999 105.47 2.76999 105.47 4.10999C105.47 5.44999 104.52 6.47999 103.13 6.47999C101.74 6.47999 100.79 5.44999 100.79 4.10999ZM104.27 4.10999C104.27 3.23999 103.86 2.63999 103.13 2.63999C102.4 2.63999 101.99 3.22999 101.99 4.10999C101.99 4.98999 102.39 5.56999 103.13 5.56999C103.87 5.56999 104.27 4.97999 104.27 4.10999Z" fill="#231F20"/>
<path id="Vector_9" d="M107.2 5.78997H107.18V6.34998H106.03V0.0999756H107.22V2.40998H107.25C107.5 2.02998 107.88 1.74998 108.5 1.74998C109.63 1.74998 110.43 2.71997 110.43 4.11997C110.43 5.51997 109.66 6.48997 108.53 6.48997C107.9 6.48997 107.45 6.21997 107.19 5.79997L107.2 5.78997ZM109.23 4.10998C109.23 3.27998 108.9 2.69998 108.23 2.69998C107.48 2.69998 107.2 3.29997 107.2 4.12997C107.2 4.95997 107.61 5.47997 108.28 5.47997C108.89 5.47997 109.23 4.96998 109.23 4.10998Z" fill="#231F20"/>
<path id="Vector_10" d="M110.77 4.09999C110.77 2.76999 111.67 1.73999 112.98 1.73999C114.42 1.73999 115.19 2.83999 115.19 4.43999H111.94C112.03 5.12999 112.41 5.55999 113.09 5.55999C113.55 5.55999 113.82 5.34999 113.96 5.00999H115.13C114.96 5.80999 114.25 6.47999 113.1 6.47999C111.61 6.47999 110.77 5.43999 110.77 4.09999ZM111.96 3.61999H113.95C113.91 3.04999 113.54 2.65999 113 2.65999C112.37 2.65999 112.06 3.03999 111.96 3.61999Z" fill="#231F20"/>
</g>
<g id="Group_2">
<g id="Group_3" opacity="0.8">
<path id="Vector_11" d="M8.5 18.37C13.1944 18.37 17 14.5644 17 9.87C17 5.17557 13.1944 1.37 8.5 1.37C3.80558 1.37 0 5.17557 0 9.87C0 14.5644 3.80558 18.37 8.5 18.37Z" fill="#231F20"/>
</g>
<g id="Group_4">
<path id="Vector_12" d="M8.50003 16.9C12.3826 16.9 15.53 13.7526 15.53 9.87003C15.53 5.98746 12.3826 2.84003 8.50003 2.84003C4.61747 2.84003 1.47003 5.98746 1.47003 9.87003C1.47003 13.7526 4.61747 16.9 8.50003 16.9Z" fill="#231F20"/>
<path id="Vector_13" d="M8.50003 17.15C6.55003 17.15 4.73003 16.39 3.35003 15.02C0.510032 12.18 0.510032 7.56003 3.35003 4.72003C6.19003 1.88003 10.81 1.88003 13.65 4.72003C15.03 6.10003 15.78 7.93003 15.78 9.87003C15.78 11.81 15.02 13.64 13.65 15.02C12.28 16.4 10.44 17.15 8.50003 17.15ZM8.50003 3.09003C6.76003 3.09003 5.03003 3.75003 3.70003 5.07003C1.06003 7.72003 1.06003 12.02 3.70003 14.66C4.98003 15.94 6.68003 16.65 8.50003 16.65C10.32 16.65 12.02 15.94 13.3 14.66C14.58 13.38 15.29 11.68 15.29 9.86003C15.29 8.04003 14.58 6.34003 13.3 5.06003C12.02 3.78003 10.24 3.08003 8.50003 3.08003V3.09003Z" fill="#58595B"/>
</g>
</g>
<path id="Vector_14" d="M120.7 10.22H26.31V9.21995H120.7C122.1 9.21995 123.24 8.07995 123.24 6.67995C123.24 5.27995 122.1 4.13995 120.7 4.13995H117.51V3.13995H120.7C122.65 3.13995 124.24 4.72995 124.24 6.67995C124.24 8.62995 122.65 10.22 120.7 10.22Z" fill="#231F20"/>
<path id="Vector_15" d="M35.25 7.10999H58.34C59.78 7.10999 60.95 8.27998 60.95 9.71998C60.95 11.16 59.78 12.33 58.34 12.33H35.25V7.10999Z" fill="#231F20"/>
<path id="Vector_16" d="M22.03 10.89L45.39 10.89C46.0362 10.89 46.56 10.3661 46.56 9.71995V9.70995C46.56 9.06378 46.0362 8.53995 45.39 8.53995L22.03 8.53995C21.3838 8.53995 20.86 9.06378 20.86 9.70995V9.71995C20.86 10.3661 21.3838 10.89 22.03 10.89Z" fill="#231F20"/>
</g>
</g>
</svg>
