<svg preserveAspectRatio="none" width="100%" height="100%" overflow="visible" style="display: block;" viewBox="0 0 43.0199 43.02" fill="none" xmlns="http://www.w3.org/2000/svg">
<g id="Frame 22">
<path id="Vector" opacity="0.35" d="M21.51 42.77C33.2516 42.77 42.7699 33.2516 42.7699 21.51C42.7699 9.76842 33.2516 0.25 21.51 0.25C9.76844 0.25 0.25 9.76842 0.25 21.51C0.25 33.2516 9.76844 42.77 21.51 42.77Z" fill="url(#paint0_linear_0_4)" stroke="var(--stroke-0, #9E9D9E)" stroke-width="0.5" stroke-miterlimit="10"/>
<g id="Group">
<path id="Vector_2" d="M10.51 28.62C10.3 28.62 10.08 28.57 9.89001 28.46C9.46001 28.23 9.18994 27.79 9.18994 27.3V15.71C9.18994 15.22 9.46001 14.78 9.89001 14.55C10.32 14.32 10.84 14.35 11.24 14.62L19.8999 20.41C20.2699 20.66 20.48 21.07 20.48 21.51C20.48 21.95 20.2599 22.36 19.8999 22.6L11.24 28.39C11.02 28.54 10.76 28.61 10.51 28.61V28.62ZM10.51 15.39C10.44 15.39 10.39 15.41 10.36 15.43C10.31 15.46 10.1899 15.54 10.1899 15.71V27.3C10.1899 27.47 10.31 27.55 10.36 27.58C10.41 27.61 10.5399 27.66 10.6899 27.56L19.35 21.77C19.48 21.69 19.49 21.56 19.49 21.51C19.49 21.46 19.48 21.33 19.35 21.25L10.6899 15.46C10.6299 15.42 10.5699 15.4 10.5199 15.4L10.51 15.39Z" fill="var(--fill-0, #231F20)"/>
<path id="Vector_3" d="M32.84 27.28H25.64C24.44 27.28 23.46 26.3 23.46 25.1V17.9C23.46 16.7 24.44 15.72 25.64 15.72H32.84C34.04 15.72 35.0199 16.7 35.0199 17.9V25.1C35.0199 26.3 34.04 27.28 32.84 27.28ZM25.64 16.73C24.99 16.73 24.46 17.26 24.46 17.91V25.11C24.46 25.76 24.99 26.29 25.64 26.29H32.84C33.49 26.29 34.0199 25.76 34.0199 25.11V17.91C34.0199 17.26 33.49 16.73 32.84 16.73H25.64Z" fill="var(--fill-0, #231F20)"/>
</g>
</g>
<defs>
<linearGradient id="paint0_linear_0_4" x1="36.5402" y1="36.5391" x2="6.48105" y2="6.48006" gradientUnits="userSpaceOnUse">
<stop stop-color="white"/>
<stop offset="0.18" stop-color="#DCDBDB"/>
<stop offset="0.58" stop-color="#838182"/>
<stop offset="1" stop-color="#231F20"/>
</linearGradient>
</defs>
</svg>
