<svg preserveAspectRatio="none" width="100%" height="100%" overflow="visible" style="display: block;" viewBox="0 0 43.02 43.02" fill="none" xmlns="http://www.w3.org/2000/svg">
<g id="TIME ICON">
<path id="Vector" opacity="0.35" d="M21.5099 42.77C33.2515 42.77 42.77 33.2516 42.77 21.51C42.77 9.76842 33.2515 0.25 21.5099 0.25C9.76838 0.25 0.25 9.76842 0.25 21.51C0.25 33.2516 9.76838 42.77 21.5099 42.77Z" fill="url(#paint0_linear_0_4)" stroke="var(--stroke-0, #9E9D9E)" stroke-width="0.5" stroke-miterlimit="10"/>
<g id="Group">
<path id="Vector_2" d="M21.5099 32.04C27.1101 32.04 31.65 27.5002 31.65 21.9C31.65 16.2998 27.1101 11.76 21.5099 11.76C15.9098 11.76 11.37 16.2998 11.37 21.9C11.37 27.5002 15.9098 32.04 21.5099 32.04Z" stroke="var(--stroke-0, #231F20)" stroke-miterlimit="10"/>
<path id="Vector_3" d="M21.15 14.59V22.84L25.44 25.97" stroke="var(--stroke-0, #231F20)" stroke-miterlimit="10" stroke-linecap="round"/>
</g>
</g>
<defs>
<linearGradient id="paint0_linear_0_4" x1="36.5375" y1="36.5391" x2="6.47131" y2="6.47295" gradientUnits="userSpaceOnUse">
<stop stop-color="white"/>
<stop offset="0.18" stop-color="#DCDBDB"/>
<stop offset="0.58" stop-color="#838182"/>
<stop offset="1" stop-color="#231F20"/>
</linearGradient>
</defs>
</svg>
